<svg
  fill="none"
  height="512"
  viewBox="0 0 512 512"
  width="512"
  xmlns="http://www.w3.org/2000/svg"
>
  <path
    clip-rule="evenodd"
    d="M4.68628 244.685C-1.5621 250.933 -1.56209 261.064 4.6863 267.312L244.685 507.311C250.933 513.56 261.064 513.56 267.312 507.311L507.311 267.312C513.56 261.064 513.56 250.933 507.311 244.685L267.312 4.68628C261.064 -1.5621 250.933 -1.56209 244.685 4.6863L4.68628 244.685ZM190.701 186.701C188.492 186.701 186.701 188.492 186.701 190.701V321.98C186.701 324.189 188.492 325.98 190.701 325.98H321.98C324.189 325.98 325.98 324.189 325.98 321.98V190.701C325.98 188.492 324.189 186.701 321.98 186.701H190.701Z"
    fill="#FFFFFF"
    fill-rule="evenodd"
  />
</svg>
